# xmcd
# Track frame offsets: 
#        150
#        16745
#        26600
#        41580
#        56157
#        68252
#        86890
#        107327
#        122472
#        141887
#        161190
#        175792
#        187000
#        204495
#        221857
#        235090
#        246222
# Disc length: 3821 seconds
# Revision: 0
# Processed by: cddbd v1.4PL0 Copyright (c) Steve Scherf et al.
# Submitted via: ExactAudioCopy v0.90a9
#
DISCID=e80eeb11
DTITLE=Handsome Ned - The Name Is Ned, Disc 2
DYEAR=1900
DGENRE=
TTITLE0=Wake Me Up I'm Dreaming
TTITLE1=Steel Rail Blue
TTITLE2=That'll Be The Love
TTITLE3=You'll Never See Midnight
TTITLE4=Stranger
TTITLE5=Johnny Too Bad
TTITLE6=Silver Wings
TTITLE7=Little Ole Wine Drinker Me
TTITLE8=Long Black Veil
TTITLE9=(Ghost) Riders In The Sky
TTITLE10=I've Been Everywhere
TTITLE11=One Hundred Miles Of Open Road
TTITLE12=A Fool Such As I
TTITLE13=Missing You
TTITLE14=Ain't No Room For Cheatin'
TTITLE15=The Grand Finale
TTITLE16=Tonight The Bottle Let Me Down
EXTD=
EXTT0=
EXTT1=
EXTT2=
EXTT3=
EXTT4=
EXTT5=
EXTT6=
EXTT7=
EXTT8=
EXTT9=
EXTT10=
EXTT11=
EXTT12=
EXTT13=
EXTT14=
EXTT15=
EXTT16=
PLAYORDER=
